/* XPM */
static char *result[] = {
/* columns rows colors chars-per-pixel */
"32 32 126 2 ",
"   c #010302",
".  c #020B02",
"X  c #050709",
"o  c #060A0B",
"O  c #080D0D",
"+  c #051403",
"@  c #081707",
"#  c #071A03",
"$  c #091C05",
"%  c #071208",
"&  c #09130C",
"*  c #0B1B0B",
"=  c #0A0D12",
"-  c #0C1313",
";  c #0F1B13",
":  c #0F131A",
">  c #101816",
",  c #12161D",
"<  c #121C1B",
"1  c #0B2304",
"2  c #0F2A06",
"3  c #0E230B",
"4  c #0F2808",
"5  c #10260E",
"6  c #122C0D",
"7  c #113204",
"8  c #14330B",
"9  c #0F2010",
"0  c #122414",
"q  c #152C13",
"w  c #15231C",
"e  c #172A1A",
"r  c #192C1C",
"t  c #173113",
"y  c #1A3416",
"u  c #1B3A15",
"i  c #1C321C",
"p  c #1E391B",
"a  c #203B1D",
"s  c #131720",
"d  c #161B23",
"f  c #172122",
"g  c #192424",
"h  c #1C2B24",
"j  c #1D232C",
"k  c #1E2A2A",
"l  c #1E3322",
"z  c #203425",
"x  c #233C24",
"c  c #23342C",
"v  c #253D29",
"b  c #232E32",
"n  c #263432",
"m  c #283634",
"M  c #273831",
"N  c #2A3D34",
"B  c #2A363A",
"V  c #234A14",
"C  c #24431E",
"Z  c #264324",
"A  c #284624",
"S  c #2A4B25",
"D  c #2A432E",
"F  c #2D4B2A",
"G  c #2D5123",
"H  c #345D26",
"J  c #32552D",
"K  c #365A2F",
"L  c #274030",
"P  c #2D4234",
"I  c #2F4A30",
"U  c #2F423B",
"Y  c #324E33",
"T  c #32453C",
"R  c #33493C",
"E  c #345234",
"W  c #3A5E34",
"Q  c #36503B",
"!  c #38632A",
"~  c #3D6632",
"^  c #3F613B",
"/  c #41663D",
"(  c #456E3B",
")  c #49743E",
"_  c #4D7C3D",
"`  c #2F3C42",
"'  c #323F44",
"]  c #354542",
"[  c #374E40",
"{  c #355240",
"}  c #3A5244",
"|  c #3E5C40",
" . c #3D524A",
".. c #3F4C56",
"X. c #3D5357",
"o. c #435A4E",
"O. c #415056",
"+. c #445A51",
"@. c #485E57",
"#. c #45535B",
"$. c #436542",
"%. c #456844",
"&. c #466549",
"*. c #4A6E48",
"=. c #4C7446",
"-. c #51754F",
";. c #4E6E52",
":. c #516F56",
">. c #577B57",
",. c #536B63",
"<. c #586D6C",
"1. c #567261",
"2. c #587660",
"3. c #5D7B64",
"4. c #55814C",
"5. c #59874C",
"6. c #5D8F4D",
"7. c #639454",
"8. c #5F8262",
"9. c #628565",
"0. c #65846F",
"q. c #688574",
"w. c #6B8A76",
"e. c #6B8879",
"r. c #73947D",
"t. c #80A686",
/* pixels */
"R } ] R U X.` n N v q > O X X X X X & ; 0 k Q 8.>.*.=.) ~ S A Z ",
"P c c N +.<.O.` T c 0 & o X X X X X - ; 0 g P :.:.&.%.%.*.| E R ",
"h < d k ] #...' B j , = o o X X X X - g w w P 1.0.2.9.;. .} D l ",
"e w < f b B B k b d , : - = O O X X , g f < c +.q.e.t.3.R m r e ",
"; < d d d g g < s d : : s - = X   X o ; w w M o.1.w.r.+.n f 0 w ",
"* - : , , , , : s s : : : O X       X O > h U +.,.,. .m f , - * ",
"o & O O = : : = = = = = O X X X   X X % - w [  .@. .M k g ; O o ",
"  X     O : : = = = X   X O X X   X   o X & l T R m k j < - O   ",
"  X   = = X X = X       X - = O X     X X   ; h k k g > - = X X ",
"      X         X X     - : - X         X   % w h w < > - O . X ",
"                X X     X O O X           X & f h g f < - % X   ",
"          X               X X             X - h f h M m < = ; X ",
"                          X               X - w f h ] @.U w ;   ",
"                                          X - < 0 h R o.{ N w o ",
"o                                         X - < w w l v l l i 9 ",
"% .                                     X   % 0 i e 9 0 e 0 r 0 ",
"@ .                                     . X % 3 r 5 * 3 4 3 r 0 ",
"* +             X                       X . % 3 6 3 @ $ 3 3 q q ",
"; .                                     . + 3 q 6 1 $ 1 4 q 3 0 ",
"* + .                                 . + $ 1 8 4 $ 1 2 1 $ $ $ ",
"3 3 + .                               . + 1 4 4 2 1 2 1 @ + @ 3 ",
"y y 6 @ . .   .               . .   . . $ 6 6 6 6 6 7 1 # $ 3 q ",
"F J C u 0 @ + + .         . .     . . + $ + @ 3 1 1 # # 1 0 i Z ",
"E ^ / ^ S p q @ # . . . . + + + . . . # # + . + + + # $ 5 q l F ",
"Y $.=.4.=.H C q q 1 + + + + @ + . % + + + + + . + + # # 3 0 l I ",
"Y E W 4.4.K A p 6 4 $ # 1 1 1 @ + + + @ + @ + + + # # + + 4 t l ",
"I D Z J K C y 8 q 6 6 3 + + * * + * 3 @ @ $ 3 1 1 2 1 # + @ 9 e ",
"c z v Z Z y q q y q q * % % * & % % ; ; @ 3 y 4 8 V 7 1 $ + * q ",
"w l v Z A p t P { a i 0 & o & * % X % & @ ; i p G ! V 1 1 + @ 9 ",
"$ e x l x i x c L A v w ; & % * & O O & & & e S ( _ ! u 1 + + @ ",
"@ e l l i h h h z F l 0 w - % & - - O & ; 9 x ^ ( 5.6.! 8 $ + + ",
"; h c l l c l h c Z y 0 - o o o O - & - * h | -.=.4.7._ V 7 $ + "
};
