/* XPM */
static char *_7ff0d4036474e578ccf41ffff62d9fadSYNrf91x6foIqBm[] = {
/* columns rows colors chars-per-pixel */
"32 32 157 2 ",
"   c #0B0C0F",
".  c #282E38",
"X  c #373C48",
"o  c #373C47",
"O  c #373D48",
"+  c #383D48",
"@  c #4B5059",
"#  c #575C65",
"$  c #636770",
"%  c #6D717A",
"&  c #4C525B",
"*  c #363C48",
"=  c #383D49",
"-  c #383E49",
";  c #2B303B",
":  c #0D0F12",
">  c #21262E",
",  c #5B6577",
"<  c #6B7484",
"1  c #7F8A9A",
"2  c #818C9E",
"3  c #828E9E",
"4  c #818C9C",
"5  c #939CAA",
"6  c #A0A9B6",
"7  c #9EA7B5",
"8  c #939DAB",
"9  c #828D9D",
"0  c #818C9D",
"q  c #838E9F",
"w  c #818D9E",
"e  c #808C9E",
"r  c #8A95A5",
"t  c #8892A2",
"y  c #6F7987",
"u  c #606C7D",
"i  c #262B35",
"p  c #262C35",
"a  c #677282",
"s  c #66707E",
"d  c #848FA3",
"f  c #8994A8",
"g  c #8A96A7",
"h  c #8A96A8",
"j  c #8894A6",
"k  c #8994A5",
"l  c #8C96A7",
"z  c #8B96A7",
"x  c #8893A6",
"c  c #8894A7",
"v  c #8995A7",
"b  c #8B97A8",
"n  c #8B96A8",
"m  c #8A95A8",
"M  c #8995A8",
"N  c #8C97A8",
"B  c #8F9BAC",
"V  c #6C7481",
"C  c #6E798A",
"Z  c #2C323D",
"A  c #252B34",
"S  c #6F7A8B",
"D  c #8994A7",
"F  c #8893A7",
"G  c #8994A6",
"H  c #8793A6",
"J  c #8792A6",
"K  c #8894A5",
"L  c #8893A5",
"P  c #8995A6",
"I  c #8D98A9",
"U  c #768193",
"Y  c #2B313C",
"T  c #252B33",
"R  c #8A95A7",
"E  c #8B97A7",
"W  c #737E8F",
"Q  c #2B313B",
"!  c #6F7A8C",
"~  c #8792A5",
"^  c #252A34",
"/  c #707B8C",
"(  c #8691A5",
")  c #727E8F",
"_  c #2C313B",
"`  c #707B8D",
"'  c #8A96A9",
"]  c #8793A5",
"[  c #717D90",
"{  c #2C313C",
"}  c #8894A8",
"|  c #8792A4",
" . c #8692A5",
".. c #8893A8",
"X. c #717C8D",
"o. c #778293",
"O. c #8D98AA",
"+. c #8793A4",
"@. c #747F90",
"#. c #8F9AAB",
"$. c #717D8F",
"%. c #747E8F",
"&. c #8E99AA",
"*. c #727C8D",
"=. c #8691A4",
"-. c #8893A4",
";. c #727D8F",
":. c #707B8E",
">. c #8A96A6",
",. c #6F7B8B",
"<. c #748091",
"1. c #2C323C",
"2. c #798596",
"3. c #8A95A9",
"4. c #768192",
"5. c #6F7B8C",
"6. c #758191",
"7. c #737F90",
"8. c #929DAE",
"9. c #6E7889",
"0. c #7D8695",
"q. c #8D99A8",
"w. c #8590A3",
"e. c #737D8E",
"r. c #6D788B",
"t. c #252B35",
"y. c #626D7E",
"u. c #6C7482",
"i. c #8F9AA8",
"p. c #8E9AAA",
"a. c #8692A4",
"s. c #818C9F",
"d. c #68727F",
"f. c #667182",
"g. c #2B323C",
"h. c #1C2128",
"j. c #4E596A",
"k. c #636E80",
"l. c #626E7F",
"z. c #616D7E",
"x. c #606B7D",
"c. c #616B7D",
"v. c #616C7D",
"b. c #606B7E",
"n. c #5F6A7C",
"m. c #515C6E",
"M. c #21262D",
"N. c #0F1114",
"B. c #191C23",
"V. c #1E232B",
"C. c #1D232A",
"Z. c #1D222A",
"A. c #1E222A",
"S. c #1E232A",
"D. c #1A1E25",
"F. c #08090B",
"G. c white",
/* pixels */
"  . X X o O O + @ # $ % & * O O X X X X X O O O O X O = - = ; : ",
"> , < 1 2 2 3 4 5 6 7 8 9 0 3 q q q q q q 3 w 2 e e q r t y u i ",
"p a s d f g h j k l z x c v b b b b b b n m f f f M N B r V C Z ",
"A S D F F G v c H J F v g K L P g g g v c F F F v g v F D I U Y ",
"T S D j v v c F F D g g M M G L G g v F F F D R g v F F v E W Q ",
"A ! g g v c F F v R v c c R g P ~ J F F F v g g D F c v g g W Q ",
"^ / b v F F F D v c F x v g g c H ( ( x v g R D F D R g g g ) _ ",
"A ` ' F F F F F F F D g g v c F F F ~ ] G v c F D g g g g v [ { ",
"A ! f F F F F F F D g R D F F F } D g P |  ...D g g h v F f ) Q ",
"A X.m F F F F F D g v F F F F c M g g v x ( ~ v g R D F D g ) Q ",
"p o.O.j F F F v v D F F F F v g g g v F c v K +.x F F v g v [ Y ",
"A @.#.v F F v v c F F F F v g g g D F F v g v H ( ~ v g v D $.Q ",
"^ %.&.c F F F F F F F D v g g R D F c v g R F F x ] +.j c v ) Q ",
"^ *.g F F F F F F F D g g g v F F c R g P F F v h v ~ =.j h W Q ",
"A / D F F F F F F v g g g v F F D R v c F F v g v F c j -.G ;.Y ",
"A ! f F F F F c v g g g v F F v g v F F D g g v c D g g j ~ :.Q ",
"A S D F F F D g g g >.G F F v v c F F v g g D F D g g D F F ` ; ",
"A S f F F D g g g M c F D R v F F c v g v c F v g f c F F D ;.Q ",
"A S f F v g g g v F F c M f F F c R g v F F v v D F F F G h W Q ",
"A S M v g g g v F F D v c F F G g g D F c v D F F F F D g g W Q ",
"A ,.z g g g c F F v v c F c v g v F F F c c F F F F D g g b <.1.",
"T / b g v D F F D D F F v g g v F F F F F F F F F v g g v ' 2.1.",
"A / b v c ..c c F F F v g R c F F F F F F F F F v g g v F 3.4._ ",
"^ 5.g F F c D F F D g h v F F F F F F F F F c v >.g v F F h 6.Y ",
"A ! D F F F F F v g h D F F F F F F c c F c g g v c F F F v @.Y ",
"A S D F F F D R g v D F F F F F D v R c c g g v F F F F c g 7.1.",
"A ` m F F v g g v F F F F c v g >.v D D R g D F F x F F v R $.Y ",
"A 7.8.O.h g v D F F F c D g g g g D c v v c F D v v c D v M [ Y ",
"A 9.0.q.b M D F F D M g g g g g D c v D c v v g g v D R w.e.r.Y ",
"t.y.u.i.p.R J  .] K K K K K K ~  .a.~ ~ L K K K -.| ~ H s.d.f.g.",
"h.j.u k.l.z.x.x.x.c.c.c.c.x.x.x.x.x.x.x.c.c.v.v.x.b.x.x.x.n.m.M.",
"N.B.V.C.Z.Z.A.A.A.A.A.A.S.S.S.S.S.S.S.S.S.S.S.S.S.S.S.A.S.V.D.F."
};
