/* XPM */
static char *result[] = {
/* columns rows colors chars-per-pixel */
"32 32 2 1 ",
"  c #B2D7D9",
". c #C1E3E1",
/* pixels */
"                                ",
"                                ",
"                    ...         ",
"                   .....        ",
"                  .......       ",
"                  .......       ",
"    ....          .......       ",
"   ......          .....        ",
"  ........          ...         ",
" ..........                     ",
" ..........                     ",
" ..........                     ",
" ..........                     ",
"  ........         .....        ",
"   ......        .........      ",
"    ....        ...........     ",
"               .............    ",
"              ...............   ",
"              ...............   ",
"             .................  ",
"             .................  ",
"             .................  ",
"             .................  ",
"    ....     .................  ",
"   ......     ...............   ",
"  ........    ...............   ",
"  ........     .............    ",
"  ........      ...........     ",
"  ........       .........      ",
"   ......          .....        ",
"    ....                        ",
"                                "
};
