/* XPM */
static char *_87070fe83d14fb59a8246c8b1c166efiRanseHFmlBsbZI1[] = {
/* columns rows colors chars-per-pixel */
"25 32 115 2 ",
"   c None",
".  c #060202",
"X  c #0B0304",
"o  c #130606",
"O  c #170708",
"+  c #1C0909",
"@  c #240B0C",
"#  c #2B0E0E",
"$  c #300F10",
"%  c #341111",
"&  c #3A1314",
"*  c #431516",
"=  c #4C181A",
"-  c #551B1C",
";  c #5C1E1F",
":  c #5F1F20",
">  c #611F20",
",  c #652122",
"<  c #6B2324",
"1  c #6D272B",
"2  c #732526",
"3  c #752728",
"4  c #782728",
"5  c #7C2929",
"6  c #842C2C",
"7  c #8B2E2E",
"8  c #832E31",
"9  c #8F2F30",
"0  c #902F30",
"q  c #833237",
"w  c #8E3133",
"e  c #83343A",
"r  c #903030",
"t  c #913030",
"y  c #923030",
"u  c #923031",
"i  c #933131",
"p  c #943131",
"a  c #953132",
"s  c #953232",
"d  c #953233",
"f  c #963232",
"g  c #973232",
"h  c #973233",
"j  c #973333",
"k  c #913234",
"l  c #953537",
"z  c #963436",
"x  c #983232",
"c  c #993232",
"v  c #993332",
"b  c #983233",
"n  c #983333",
"m  c #993333",
"M  c #9A3333",
"N  c #9B3333",
"B  c #9A3433",
"V  c #983334",
"C  c #993334",
"Z  c #9A3334",
"A  c #9B3334",
"S  c #9A3434",
"D  c #9B3434",
"F  c #9A3435",
"G  c #9B3435",
"H  c #9B3537",
"J  c #9B3637",
"K  c #9C3434",
"L  c #9D3434",
"P  c #9C3536",
"I  c #9B3638",
"U  c #9B3739",
"Y  c #98373A",
"T  c #9C3638",
"R  c #9D3738",
"E  c #97393E",
"W  c #9A383B",
"Q  c #9C393C",
"!  c #9C393D",
"~  c #9D393D",
"^  c #9E393D",
"/  c #9E3A3D",
"(  c #9D3A3E",
")  c #9D3A3F",
"_  c #9D3B3F",
"`  c #9E3B3F",
"'  c #923B42",
"]  c #943A40",
"[  c #9E3B40",
"{  c #9F3D42",
"}  c #9F3D43",
"|  c #9F3F45",
" . c #A03E44",
".. c #A03F45",
"X. c #A13F46",
"o. c #A04047",
"O. c #A1424B",
"+. c #A2434B",
"@. c #A2434C",
"#. c #A3444C",
"$. c #A3444D",
"%. c #A3454E",
"&. c #A3454F",
"*. c #A4444D",
"=. c #A4454D",
"-. c #A4454E",
";. c #A34650",
":. c #A54650",
">. c #A54752",
",. c #A44853",
"<. c #A54955",
"1. c #A64955",
"2. c #A64A56",
"3. c #A64C59",
"4. c #A84E5C",
/* pixels */
"                      X .                         ",
"                    o * & @                       ",
"                    * , 5 2 &                     ",
"                  O 5 6 6 D 7 &                   ",
"                X ; Z r < M K 5 O                 ",
"                & p M M p M 6 5 %                 ",
"              O 4 7 M U U M 2 = , O               ",
"              = 4 ; 7 ] %.M M 4 r , o             ",
"            + 6 7 5 2 e -.M M M M M -             ",
"            - p p K 2 q %.M M M M M 9 $           ",
"          # 7 < 7 r > ' +.M T 6 6 M D < X         ",
"        X < 7 , M , 8 4.| M ..w , p M r %         ",
"        & r , 6 p , U 3.( M } ..2 2 M D < X       ",
"      X < w , ( z , p D M p E 2.k , M M p %       ",
"      % r 6 , ;.( , 7 6 5 5 4 :.z , p , 5 ,       ",
"    o 2 K 5 6 2.( 4 4 4 4 4 4 T p , 0 , 2 7 +     ",
"    * 7 r M ( %.D < 6 2 4 4 2 D M 4 < 7 r M =     ",
"  o 4 ; 2 D D K 6 , M 7 2 7 > 6 M p , 6 K D 5 O   ",
"  * p > 6 D 7 r < 6 B M M T w , p B 6 1 ..6 0 *   ",
"X 2 D Z 9 p ; 4 < 7 M M M @.W , r M r 5 %.8 , < X ",
"@ 7 } } < 7 p p 2 4 M M Z ,.o., 7 M M M | -.< < + ",
"% p -.+., r r M 9 2 p M M ( 2.8 , p M M ( ( < 4 # ",
"# r 6 w , 9 , r M M M M M D ,.( 2 2 M M M M 2 4 % ",
"@ 6 = 6 < 6 , r M D D M p 7 ( D p , 7 M M M 2 4 % ",
"X 2 2 6 6 , , 7 r 8 [ M p , r M D , 6 D r 2 , 2 @ ",
"  * M M M , - 0 5 2 -.D r , p M 4 , p M 7 - 2 : . ",
"  o < D M r - 7 6 < :.( 2 4 9 , < p M p , 5 7 #   ",
"    @ 5 M 6 2 2 r > k T 4 2 p 7 M M M 4 2 7 &     ",
"      @ 4 > < , 6 6 4 9 , 5 B M 9 5 D p 4 %       ",
"        + - 5 7 , 7 Z 5 5 M M 2 > 2 5 = o         ",
"            @ = - < 7 r 7 6 5 , = % o             ",
"                X O @ # @ + o X                   "
};
