/* XPM */
static char *_38bd2a7d0f842cfe55aacf0c346ef1c5qOwoKGlChOj0QFV[] = {
/* columns rows colors chars-per-pixel */
"29 32 113 2 ",
"   c None",
".  c #6D6546",
"X  c #6D6B49",
"o  c #706947",
"O  c #746C4A",
"+  c #6C704F",
"@  c #77704B",
"#  c #7C744D",
"$  c #756E53",
"%  c #737753",
"&  c #7B7552",
"*  c #747954",
"=  c #7E7D56",
"-  c #797458",
";  c #7C7D59",
":  c #BE623A",
">  c #D2481F",
",  c #D54E23",
"<  c #DA4E23",
"1  c #D45127",
"2  c #D0542A",
"3  c #C5643B",
"4  c #80774F",
"5  c #807750",
"6  c #827951",
"7  c #867F5B",
"8  c #7D825B",
"9  c #82855C",
"0  c #858A5E",
"q  c #9D855E",
"w  c #A1835D",
"e  c #B2835A",
"r  c #838663",
"t  c #898262",
"y  c #858B61",
"u  c #898E62",
"i  c #86836D",
"p  c #848C68",
"a  c #898D69",
"s  c #958163",
"d  c #8B9163",
"f  c #8D936C",
"g  c #8B8A7A",
"h  c #8D9671",
"j  c #909670",
"k  c #939A73",
"l  c #959D79",
"z  c #A28861",
"x  c #AB8C64",
"c  c #A58A69",
"v  c #B18C63",
"b  c #A99069",
"n  c #97A079",
"m  c #9BA37B",
"M  c #9FA87F",
"N  c #A2A57D",
"B  c #A1AA7F",
"V  c #949489",
"C  c #999A8E",
"Z  c #A3AC82",
"A  c #A8AD82",
"S  c #A7B084",
"D  c #AAB387",
"F  c #ACB588",
"G  c #A4A59D",
"H  c #ACA99B",
"J  c #A7A8A0",
"K  c #ABADA5",
"L  c #AAADA5",
"P  c #ACADA5",
"I  c #ACAEA5",
"U  c #AEAFA6",
"Y  c #AFB0A7",
"T  c #B2B3AB",
"R  c #B2B4AB",
"E  c #B4B5AC",
"W  c #B4B6AD",
"Q  c #B5B6AD",
"!  c #B3B5AC",
"~  c #B6B8AF",
"^  c #B7B8AF",
"/  c #B7B9AF",
"(  c #BBB9AE",
")  c #B7B8B0",
"_  c #BABBB2",
"`  c #C0C2B6",
"'  c #C5C3B7",
"]  c #D8D8D2",
"[  c #E1E1E0",
"{  c #E2E2E2",
"}  c gray89",
"|  c #E4E4E4",
" . c gray90",
".. c #E7E7E7",
"X. c gray91",
"o. c #E9E9E8",
"O. c #E9E9E9",
"+. c #EAEAEA",
"@. c gray92",
"#. c #ECECEC",
"$. c gray93",
"%. c #EEEEEE",
"&. c #F1F1F1",
"*. c #F3F3F3",
"=. c #F4F4F4",
"-. c #F6F6F6",
";. c gray97",
":. c #F8F9F9",
">. c #F9F9F9",
",. c #FBFBFB",
"<. c gray99",
"1. c #FEFEFE",
"2. c white",
/* pixels */
"                          o         o.#.&.&.#...          ",
"                        O . $ H [ #.o.o.o.#.-.,.2.-.      ",
"                    X - & O # & ( ,.,.-.&.#.o.[ ..#.      ",
"              0 u u 9 & 5 5 5 5 7 ' 2.2.2.2.2.2.-.o.      ",
"            u d d u d 9 # 5 5 5 5 t ] 2.2.2.2.2.2.2.2.o.  ",
"          8 y d d d d 0 & 5 5 5 5 4 r ` -.,.2.2.2.2.2.2.[ ",
"        l h p u d d d 0 # 6 5 5 @ # = 0         ......    ",
"      b A v x f d d d 9 5 6 5 9 u = 9 d 8                 ",
"    > 3 e < 1 q y u 0 & 5 5 # & u j j d y                 ",
"      : e , 2 w       a # # # & 8 u f j j r     .         ",
"      s N z c         n     * 9 u u d u d j m   @ .       ",
"      L l M   )     n       8 9 0 9 u d u f l f # o       ",
"      L   f   R     m         ; 8 ; 9 u j S n   # O       ",
"                  k j         * * 8 f M D D m   # #       ",
"                O = O             n D F D D n   @ #       ",
"              # # o               S F F D S       5       ",
"          # # #                 8 f k Z D M       #       ",
"      i O                       0 d u d n         #       ",
"  _ U                       r y d d f y           @       ",
"L                         M u y u u B l           o       ",
"                        M n 9 9 8 f Z             i       ",
"                      n Z   * ;   n M             /       ",
"                      m       +   M               /       ",
"                    h 8     X X   n     % %       T G     ",
"                            o   l a %     .               ",
"                            .                             ",
"                                                          ",
"                          o             o                 ",
"              U J G J V & O g           O                 ",
"              U Q                 G C ; O                 ",
"                            Q / / Q Y                     ",
"                            G !                           "
};
