/* XPM */
static char *_49ab305a74346cd87911e8d9f2e2486NIGNWoQB3wYHgMX0[] = {
/* columns rows colors chars-per-pixel */
"24 32 164 2 ",
"   c None",
".  c #282F0F",
"X  c #2A310F",
"o  c #2A320F",
"O  c #272E10",
"+  c #2B3310",
"@  c #333E12",
"#  c #333F12",
"$  c #343F11",
"%  c #344012",
"&  c #354112",
"*  c #364212",
"=  c #364312",
"-  c #374313",
";  c #374315",
":  c #394513",
">  c #394613",
",  c #394714",
"<  c #3B4A15",
"1  c #3B481B",
"2  c #404D1C",
"3  c #425318",
"4  c #435418",
"5  c #435518",
"6  c #435519",
"7  c #42511C",
"8  c #44541C",
"9  c #44571E",
"0  c #46581A",
"q  c #4D611E",
"w  c #526A1F",
"e  c #4D5E25",
"r  c #4C6020",
"t  c #526625",
"y  c #526527",
"u  c #526626",
"i  c #566F21",
"p  c #576E25",
"a  c #587024",
"s  c #5C7429",
"d  c #60762C",
"f  c #657E30",
"g  c #638026",
"h  c #628027",
"j  c #67862A",
"k  c #678D2F",
"l  c #6D8F2A",
"z  c #688F2F",
"x  c #67902D",
"c  c #6E902A",
"v  c #6F912A",
"b  c #69912F",
"n  c #70932B",
"m  c #71942A",
"M  c #71942B",
"N  c #70932C",
"B  c #73962F",
"V  c #6B8635",
"C  c #708A31",
"Z  c #708E33",
"A  c #748F32",
"S  c #728F3B",
"D  c #6A9230",
"F  c #6B9331",
"G  c #749233",
"H  c #719735",
"J  c #719636",
"K  c #739937",
"L  c #799B36",
"P  c #7D9B34",
"I  c #7D9B36",
"U  c #7C9A37",
"Y  c #7F9D35",
"T  c #7E9D36",
"R  c #739039",
"E  c #729539",
"W  c #78973D",
"Q  c #779838",
"!  c #759C38",
"~  c #729E3F",
"^  c #799B39",
"/  c #799D39",
"(  c #7C9A3D",
")  c #799D3D",
"_  c #7FA23C",
"`  c #7EA43E",
"'  c #7B9D40",
"]  c #7CA747",
"[  c #7DA942",
"{  c #7FB345",
"}  c #7FB446",
"|  c #78B24B",
" . c #7BB34A",
".. c #7CB94B",
"X. c #7AB84C",
"o. c #7BB94D",
"O. c #7CBC4C",
"+. c #7DBE4C",
"@. c #7DBD4E",
"#. c #7DBE4E",
"$. c #7EBF4F",
"%. c #7FC14F",
"&. c #809F34",
"*. c #809F37",
"=. c #849E3E",
"-. c #84A336",
";. c #82A138",
":. c #82A23D",
">. c #82A53E",
",. c #83A939",
"<. c #81A83B",
"1. c #84A83C",
"2. c #85AB3E",
"3. c #80A141",
"4. c #81A042",
"5. c #81A243",
"6. c #82A741",
"7. c #83A743",
"8. c #86A642",
"9. c #85A644",
"0. c #8BA743",
"q. c #86AA45",
"w. c #87A947",
"e. c #8BAF44",
"r. c #8AAE45",
"t. c #88AE46",
"y. c #87AF4B",
"u. c #8BAD48",
"i. c #8AAC49",
"p. c #8DAF49",
"a. c #8DB049",
"s. c #8EB348",
"d. c #8EB14A",
"f. c #8EB14B",
"g. c #8FB34A",
"h. c #8FB44B",
"j. c #82B948",
"k. c #90B34B",
"l. c #91B54B",
"z. c #91B64A",
"x. c #91B64B",
"c. c #92B74A",
"v. c #93B94B",
"b. c #94BA4B",
"n. c #94BB4B",
"m. c #93B84C",
"M. c #93B94C",
"N. c #93B84D",
"B. c #94B84C",
"V. c #94B94D",
"C. c #95BA4C",
"Z. c #95BB4C",
"A. c #96BB4D",
"S. c #96BC4D",
"D. c #96BC4E",
"F. c #97BC4F",
"G. c #98BE4D",
"H. c #98BE4E",
"J. c #81C14D",
"K. c #81C04E",
"L. c #99C04D",
"P. c #A2C258",
"I. c #A9C659",
"U. c #A8D05F",
/* pixels */
"                                                ",
"                                                ",
"                                #.              ",
"                            #.#.J...%.X.        ",
"                            #.j.1.<.}           ",
"                          X.J.e.A.1.[ #.        ",
"                          #.{ 0.I.P.U. .        ",
"                           .<.&.P =.y.X.        ",
"              A.v.b.D.A.D.] / -.;.Y ~           ",
"            H.f.      f.x.J Z &.P E             ",
"          D.f.      f.h.! D 7.4.8.4.            ",
"        x.x.      u.D.` b 7.u.  k.A.            ",
"        x.        m.e.D J w.      m.            ",
"      G R       f.m.K x )           x.          ",
"  d A P         b.w.k z '         W x.f.        ",
"                L.V q 9 S       Y :.A.p.        ",
"                H.y , = 7       C               ",
"                e.r h i >                       ",
"              m.( 0 c N p >                     ",
"              A.f 3 c M ^ 9 =                   ",
"              x.s 6 c n _   $ =                 ",
"              e.a 6 c M L     =                 ",
"              >.w 6 l M B 9.  @ =               ",
"              Q 6 < h   j 4.    =               ",
"                =               =               ",
"              = =               =               ",
"            @ =                 =               ",
"            =                   =               ",
"          y ;                   y               ",
"          2                     e 1             ",
"          o o                   . + O           ",
"                                                "
};
