/* XPM */
static char *result[] = {
/* columns rows colors chars-per-pixel */
"20 32 196 2 ",
"   c #36961C",
".  c #39971E",
"X  c #3A9E1D",
"o  c #369A1C",
"O  c #3CA41D",
"+  c #3EAB1D",
"@  c #3DB41B",
"#  c #3FBB1C",
"$  c #3C9A22",
"%  c #42A41E",
"&  c #48A61F",
"*  c #43AC1E",
"=  c #43B41E",
"-  c #49B21F",
";  c #44BC1E",
":  c #4ABB1F",
">  c #44A721",
",  c #4DA92D",
"<  c #43AD24",
"1  c #50AA20",
"2  c #44B521",
"3  c #4CB321",
"4  c #4CBB21",
"5  c #52B521",
"6  c #53BC22",
"7  c #59BD23",
"8  c #5CB82F",
"9  c #4EAF31",
"0  c #50AA30",
"q  c #55A73B",
"w  c #5ABF35",
"e  c #5BB63F",
"r  c #55B437",
"t  c #62BC23",
"y  c #44C41D",
"u  c #4BC41F",
"i  c #44CA1E",
"p  c #4BCA1F",
"a  c #50C91F",
"s  c #4DD11F",
"d  c #4DDC1E",
"f  c #45D01D",
"g  c #4BE41E",
"h  c #4AE81D",
"j  c #51E51F",
"k  c #52E91F",
"l  c #4DC422",
"z  c #4ECB21",
"x  c #52C521",
"c  c #5AC224",
"v  c #55CA23",
"b  c #5BCC23",
"n  c #54C62D",
"m  c #5DC32C",
"M  c #4FD520",
"N  c #54D522",
"B  c #5BD423",
"V  c #53DC20",
"C  c #5BDC23",
"Z  c #5ED82B",
"A  c #59D32B",
"S  c #56C333",
"D  c #5BCE30",
"F  c #5CC136",
"G  c #61C324",
"H  c #68C124",
"J  c #6DCE25",
"K  c #63C82F",
"L  c #69CE29",
"P  c #65D125",
"I  c #62DC24",
"U  c #68DE24",
"Y  c #68D72C",
"T  c #73D526",
"R  c #76DD29",
"E  c #7FD32B",
"W  c #6BC731",
"Q  c #67D539",
"!  c #6DD932",
"~  c #4FE722",
"^  c #56E420",
"/  c #5AE522",
"(  c #53E921",
")  c #5DEA23",
"_  c #55E728",
"`  c #5AE428",
"'  c #5CE630",
"]  c #5FE934",
"[  c #62E424",
"{  c #6CE526",
"}  c #65ED24",
"|  c #6AED25",
" . c #64E32A",
".. c #69E72E",
"X. c #65ED29",
"o. c #6CEE2C",
"O. c #72ED26",
"+. c #7CED26",
"@. c #71E329",
"#. c #78E728",
"$. c #74EC2A",
"%. c #7BEE2B",
"&. c #6BF126",
"*. c #71F02A",
"=. c #7AF02D",
"-. c #74F026",
";. c #65E030",
":. c #61E931",
">. c #6BED31",
",. c #77EF33",
"<. c #74E63F",
"1. c #78E73C",
"2. c #71EF38",
"3. c #7BEE3A",
"4. c #7BEF33",
"5. c #71F037",
"6. c #7DF032",
"7. c #64BB49",
"8. c #79D446",
"9. c #76D051",
"0. c #74DC50",
"q. c #6EE640",
"w. c #6EEC41",
"e. c #76EF40",
"r. c #79EE40",
"t. c #7BEC4B",
"y. c #7EED53",
"u. c #7CE154",
"i. c #7DC066",
"p. c #82D83E",
"a. c #87E129",
"s. c #86EC2B",
"d. c #8EED2F",
"f. c #89E22D",
"g. c #83F22B",
"h. c #8AF32C",
"j. c #93F42D",
"k. c #9BF42E",
"l. c #96F82D",
"z. c #9AF82E",
"x. c #82EB32",
"c. c #8FEF30",
"v. c #8EEF3C",
"b. c #9AEF3D",
"n. c #84F132",
"m. c #8AF334",
"M. c #8CF33B",
"N. c #95F334",
"B. c #9AF534",
"V. c #95F53B",
"C. c #9AF53B",
"Z. c #9EF83E",
"A. c #A7FA2F",
"S. c #A5F42C",
"D. c #A3F734",
"F. c #A4F43D",
"G. c #AAFB3D",
"H. c #A2F934",
"J. c #B2FE35",
"K. c #BCFB3E",
"L. c #88D843",
"P. c #8CF245",
"I. c #86F249",
"U. c #94F444",
"Y. c #9BF546",
"T. c #94F44D",
"R. c #9CF54B",
"E. c #8EE858",
"W. c #92EF50",
"Q. c #87F055",
"!. c #96F357",
"~. c #A1F644",
"^. c #AFFB46",
"/. c #A7F848",
"(. c #A9F44E",
"). c #BBFA4A",
"_. c #A1F45E",
"`. c #B2F95C",
"'. c #B3FB54",
"]. c #9DEA60",
"[. c #98E570",
"{. c #98F077",
"}. c #A7F168",
"|. c #A3F261",
" X c #B9F869",
".X c #BAF56A",
"XX c #A3F373",
"oX c #B6F777",
"OX c #B8F77A",
"+X c #B9F687",
"@X c #B5F685",
"#X c #C2F794",
"$X c #D7FAA5",
"%X c #D9F9BE",
"&X c #DDF9C1",
"*X c None",
/* pixels */
"*X*X*X*X*X*XI | =.*.o.O.[ *X*X*X*X*X*X*X",
"*X*X*X*X*X1.m.R.OXM.=.5.s.h.*X*X*X*X*X*X",
"*X*X*X*X*X=.m.U.+X!.5.X.e.V.j.*X*X*X*X*X",
"*X*X*X*X^ ' } -.6.T.m.} ) P.B.=.*X*X*X*X",
"*X*X*X;.y.] ) &.{ C I z M =.(.m.n.*X*X*X",
"*X*X..e.{._ ^ V * % 7 % o l |.V.6.d.*X*X",
"*X*X) ) ~ V N y > H T T O o b B./.N.*X*X",
"*X..2.k ' Z d ; t T { | V # * f.h.z.*X*X",
"*Xn.P.( k ) i & - I / } } / y G g.h.j.*X",
"*X~.=.| | g a 7 1 * 5 { C R U 5 [ g.C.*X",
"v.V.) } k j b % X X & J [ c +.t N g.N.*X",
"m.g.t.u.g V 7 * p X     5 : #.J z -.j.*X",
"+.h.<.[.g B 5 z :   . . * b P u i o.C.*X",
"$.R.1.| V v i d %   X p u I x u i { Y.b.",
"h.T.U.j ; + g N & % + ; p B b ; i p.F.N.",
"g.j.B.T O + g B 1 : b % + P #.: i %.M.F.",
"h.J.^.W   - / x t I { v P L.U.B M %.V.k.",
"g.J.F.,   u j ; b &.p = x E.Q.| / g.K.D.",
"g.G.(.0   # h ; x C N l Q E.` I z n.).~.",
"+.G.$Xi.. # g y 5 O.[ } I.Y p 6 v %.Y.B.",
"s.H./.w . + i N % a.g.+.B + - * { U.`.k.",
"*Xz.B.w q = = / : 5 }.+XZ 3 6 - %. XC.*X",
"*Xz.z.A $ < z @.{ 4 n t.X.) l 4 [ m.V.*X",
"*XV.'.Y O % B &.m.{ b x B v X l A s.d.*X",
"*X3.`.N.z O m ` &.P 7 m m 6 2 2 9.n.E *X",
"*X*X*.V.W.w 3 5 V l 2 4 v ; 2 > !  .*X*X",
"*X*X<.P.j._.8.9 2 n 2 n Z z < L g.*X*X*X",
"*X*X*X) g.m.>.0.7.e r S @ 9 8 s.#.*X*X*X",
"*X*X*X[ } } ( q.y.A 3 n K W x.h.*X*X*X*X",
"*X*X*X*X+.| :.~ >.y.q.XX&X%XoXk.*X*X*X*X",
"*X*X*X*X*X*Xg.>.) ) %.T.@X$X.X*X*X*X*X*X",
"*X*X*X*X*X*X*Xk.j.j.A.D.k.S.*X*X*X*X*X*X"
};
