/* XPM */
static char *result[] = {
/* columns rows colors chars-per-pixel */
"20 32 106 2 ",
"   c #797979",
".  c gray48",
"X  c #7B7B7B",
"o  c #7C7C7C",
"O  c #7E7E7E",
"+  c gray50",
"@  c #818181",
"#  c gray51",
"$  c #848484",
"%  c gray52",
"&  c #868686",
"*  c gray53",
"=  c #888888",
"-  c #898989",
";  c gray54",
":  c gray55",
">  c #8D8D8D",
",  c #8E8E8E",
"<  c gray56",
"1  c #909090",
"2  c gray57",
"3  c #929292",
"4  c #939393",
"5  c gray58",
"6  c #959595",
"7  c gray59",
"8  c #979797",
"9  c #989898",
"0  c gray60",
"q  c #9A9A9A",
"w  c #9B9B9B",
"e  c gray61",
"r  c #9D9D9D",
"t  c gray62",
"y  c #9F9F9F",
"u  c #A0A0A0",
"i  c gray63",
"p  c #A2A2A2",
"a  c gray64",
"s  c #A4A4A4",
"d  c #A5A5A5",
"f  c gray65",
"g  c #A7A7A7",
"h  c gray66",
"j  c #A9A9A9",
"k  c #AAAAAA",
"l  c gray67",
"z  c #ACACAC",
"x  c gray68",
"c  c #AEAEAE",
"v  c #AFAFAF",
"b  c gray69",
"n  c #B2B2B2",
"m  c gray70",
"M  c #B4B4B4",
"N  c gray71",
"B  c #B6B6B6",
"V  c #B7B7B7",
"C  c gray72",
"Z  c #B9B9B9",
"A  c gray73",
"S  c #BBBBBB",
"D  c #BCBCBC",
"F  c gray74",
"G  c gray",
"H  c gray75",
"J  c #C0C0C0",
"K  c #C1C1C1",
"L  c gray76",
"P  c #C3C3C3",
"I  c gray77",
"U  c #C5C5C5",
"Y  c #C6C6C6",
"T  c gray78",
"R  c #C8C8C8",
"E  c gray79",
"W  c #CACACA",
"Q  c #CBCBCB",
"!  c gray80",
"~  c #CDCDCD",
"^  c #CECECE",
"/  c gray81",
"(  c #D0D0D0",
")  c gray82",
"_  c #D2D2D2",
"`  c LightGray",
"'  c gray83",
"]  c #D5D5D5",
"[  c gray84",
"{  c #D7D7D7",
"}  c #D8D8D8",
"|  c gray85",
" . c #DADADA",
".. c gray86",
"X. c gainsboro",
"o. c #DDDDDD",
"O. c gray87",
"+. c #DFDFDF",
"@. c gray88",
"#. c #E1E1E1",
"$. c gray90",
"%. c gray92",
"&. c gray93",
"*. c #EEEEEE",
"=. c #EFEFEF",
"-. c None",
/* pixels */
"-.-.-.-.-.-.C I E T U I S -.-.-.-.-.-.-.",
"-.-.-.-.-.I ^ [ #.( R E ! ! -.-.-.-.-.-.",
"-.-.-.-.-.E / ] $.] R P E ` ) -.-.-.-.-.",
"-.-.-.-.Z H J T Q ' / I K _ ] E -.-.-.-.",
"-.-.-.Z W H F Y H n N d j E | / ! -.-.-.",
"-.-.G E ] S C N : # t % O p { ' Q ! -.-.",
"-.-.L K Z n v 0 - a M M % o f ' } ) -.-.",
"-.J R S D n m 8 y N G K M 8 : P _ ] -.-.",
"-.Q / F F F u * 4 n A J I S w d ~ ( / -.",
"-.} R I K B g 7 5 > 8 J V Z C 6 D / ' -.",
"^ ' H K F Z j $ O + = x C i T i c ~ _ -.",
"~ / R L V n u - s @   . 8 r D c a T _ -.",
"E / L ~ V c 7 f 9   . . ; k z u i I ' -.",
"Y [ T K m s a c $   + f p b d e i F { ) ",
"~ ] ) C 0 > m v ; % - 9 i x f 9 y S } ) ",
"! ' { M $ * N z > 9 k = , v L 8 f Y ` ] ",
"^ @.O.g   3 A a r N D a l F _ v z R ] ` ",
"! @.{ ,   r Z 0 d U j 4 s ( / P Z Q #.{ ",
"Q o.} <   0 Z 8 u B l u m Q A n s ~ @.{ ",
"E X.&.z X 7 B q 6 I G I / n p 0 f E [ ` ",
"E | ..u o : e b - K / W z - 2 : F [ O.) ",
"-.[ { u , 1 3 S 7 4 } #.n 7 e 5 Y #.[ -.",
"-.[ ] l + > p J K w a T P F r w F / _ -.",
"-.` @.B $ % v U / F g p c f # r j Q / -.",
"-.W @.~ a & i Z T x e s p r 8 2 M ! B -.",
"-.-.T ] ( p 3 q n t 6 q g 0 4 - V D -.-.",
"-.-.P ( ) } V : 5 p 3 p c i > c ! -.-.-.",
"-.-.-.S ~ ) U D i w 8 i 3 3 w R P -.-.-.",
"-.-.-.C L L A Y Q l 1 d h l U ~ -.-.-.-.",
"-.-.-.-.T L J A Y ! K | =.*.@.( -.-.-.-.",
"-.-.-.-.-.-.Q P J H W ` @.%.+.-.-.-.-.-.",
"-.-.-.-.-.-.-._ _ '  .| ] [ -.-.-.-.-.-."
};
