/* XPM */
static char *f993c18043e74e70a4a9c7ef846a0d52eDgUSxDO1071Dniq[] = {
/* columns rows colors chars-per-pixel */
"32 32 157 2 ",
"   c None",
".  c #6F3132",
"X  c #7A3C38",
"o  c #6C4219",
"O  c #7A4B1D",
"+  c #794B1E",
"@  c #7C5530",
"#  c #22314E",
"$  c #273856",
"%  c #293A57",
"&  c #273958",
"*  c #293A58",
"=  c #283A5B",
"-  c #283B5B",
";  c #2A3B5A",
":  c #2B3D5C",
">  c #293C5E",
",  c #2B3E5E",
"<  c #2C3E5E",
"1  c #2C3F5F",
"2  c #2B3F63",
"3  c #2D3F60",
"4  c #2F405C",
"5  c #2D4061",
"6  c #2E4162",
"7  c #2E4163",
"8  c #2C4064",
"9  c #2F4264",
"0  c #2F4365",
"q  c #384760",
"w  c #7A4340",
"e  c #746552",
"r  c #805022",
"t  c #815123",
"y  c #85572A",
"u  c #84572C",
"i  c #82582F",
"p  c #82705B",
"a  c #A77C55",
"s  c #AA7D56",
"d  c #9E7F64",
"f  c #A47462",
"g  c #7D8152",
"h  c #AA815C",
"j  c #B7AB5C",
"k  c #9D846B",
"l  c #919660",
"z  c #949A61",
"x  c #A5876E",
"c  c #B98D69",
"v  c #BE9769",
"b  c #BC916F",
"n  c #A48970",
"m  c #B4957A",
"M  c #9FA360",
"N  c #9EA261",
"B  c #BEA96A",
"V  c #C2BD59",
"C  c #C18F76",
"Z  c #C49975",
"A  c #C19D7D",
"S  c #CA9C78",
"D  c #C5AD6B",
"F  c #CBA777",
"G  c #CFA07C",
"H  c #CBA97F",
"J  c #D7BE76",
"K  c #C8C557",
"L  c #D3D05C",
"P  c #D7D35D",
"I  c #DCD85F",
"U  c #D2C06E",
"Y  c #DAD660",
"T  c #DDD960",
"R  c #DFDC60",
"E  c #DFDC61",
"W  c #E1DD62",
"Q  c #E6E363",
"!  c #E6E264",
"~  c #E8E464",
"^  c #E8E465",
"/  c #EAE566",
"(  c #ECE866",
")  c #ECE36D",
"_  c #F1ED68",
"`  c #F2EE69",
"'  c #F4F069",
"]  c #F5F16A",
"[  c #F7F26A",
"{  c #F6F06C",
"}  c #F7F26D",
"|  c #F8F36B",
" . c #FBF66C",
".. c #FCF76C",
"X. c #FDF86D",
"o. c #FEF96D",
"O. c #FFF96D",
"+. c #FFFA6D",
"@. c #FFFB6D",
"#. c #FFFA6E",
"$. c #FFFC6D",
"%. c #6F7888",
"&. c #717988",
"*. c #BD9C80",
"=. c #BC9F86",
"-. c #A9ACB0",
";. c #BCBCBC",
":. c #C49E80",
">. c #C59E81",
",. c #C99E82",
"<. c #CE9E81",
"1. c #CAA284",
"2. c #CAA384",
"3. c #CBA286",
"4. c #CAA485",
"5. c #CDA586",
"6. c #CFA687",
"7. c #D2A889",
"8. c #D4AA8A",
"9. c #D6AC8B",
"0. c #DAA88B",
"q. c #D8AD8C",
"w. c #DBAE8D",
"e. c #DAAE8E",
"r. c #DBAF8E",
"t. c #D8B08F",
"y. c #DCB08F",
"u. c #D7B091",
"i. c #D8B599",
"p. c #DDB99F",
"a. c #E0B98C",
"s. c #E5B694",
"d. c #E0BC9F",
"f. c #F2BF9C",
"g. c #D4B7A1",
"h. c #DEBBA1",
"j. c #DBBDA6",
"k. c #EFC09D",
"l. c #F5C19D",
"z. c #DDCABC",
"x. c #E0C4AE",
"c. c #F8C5A0",
"v. c #E0C6B2",
"b. c #C6C6C6",
"n. c #CACBCE",
"m. c gray81",
"M. c #D8CEC6",
"N. c #D5D5D5",
"B. c #DED7D1",
"V. c gray87",
"C. c #E4D6CC",
"Z. c #E0DBD6",
"A. c #E7E0DB",
"S. c #E5E0DC",
"D. c #EBE8E5",
"F. c #ECE9E6",
"G. c white",
/* pixels */
"                                                                ",
"                                O r r O                         ",
"                            o y a S G h i                       ",
"                            u Z u.k.c.p.*.@                     ",
"                            s x.A.z.h.D.B.d                     ",
"                            c C.G.S.g.F.Z.=.                    ",
"                            b j.M.v.t.d.i.4.                    ",
"                            w.f.s.<.f C l.3.                    ",
"                              a.0.X . w ,.                      ",
"                            R ) J v F D j                       ",
"                          Y ] _ ..{ { ^ ^                       ",
"                        A U R ] #.#...K ^ V                     ",
"                        y.  Q #.#.#.]   B H                     ",
"                      7.3.  _ #.#.#.(     w.                    ",
"                      9.    | #.#.#.!     w.                    ",
"                    5.3.     .#.#.#.W     8.                    ",
"                  m w.    L #.#.#.#.T     5.                    ",
"                p n x     P #.$.$.#.I     :.:.                  ",
"                            l N N z g       k                   ",
"                            9 : # 2 -         e                 ",
"                            9 :   1 5                           ",
"                            9 -     9                           ",
"                            9 %     5 :                         ",
"                            5       - 5                         ",
"                            5         5                         ",
"                          % 5         5                         ",
"                          1 -         3                         ",
"                          5           : $                       ",
"                        & -           4 q                       ",
"                        %.&.          -.n.b.                    ",
"                        m.V.;.          N.m.                    ",
"                                                                "
};
